<svg width="40" height="40" viewBox="0 0 40 40" fill="none" xmlns="http://www.w3.org/2000/svg">
  <defs>
    <linearGradient id="grad1" x1="0%" y1="0%" x2="100%" y2="0%">
      <stop offset="0%" style="stop-color:#FFDB6E;stop-opacity:1" />
      <stop offset="100%" style="stop-color:#FFBC5E;stop-opacity:1" />
    </linearGradient>
  </defs>
  <path d="M22 1C12.0589 1 4 3.68629 4 7C4 10.3137 12.0589 13 22 13C31.9411 13 40 10.3137 40 7C40 3.68629 31.9411 1 22 1Z" stroke="url(#grad1)" stroke-width="2" fill="none"/>
  <path d="M4 13C4 16.3137 12.0589 19 22 19C31.9411 19 40 16.3137 40 13" stroke="url(#grad1)" stroke-width="2" fill="none"/>
  <path d="M4 19C4 22.3137 12.0589 25 22 25C31.9411 25 40 22.3137 40 19" stroke="url(#grad1)" stroke-width="2" fill="none"/>
  <path d="M4 25C4 28.3137 12.0589 31 22 31C31.9411 31 40 28.3137 40 25" stroke="url(#grad1)" stroke-width="2" fill="none"/>
  <line x1="4" y1="7" x2="4" y2="31" stroke="url(#grad1)" stroke-width="2"/>
  <line x1="40" y1="7" x2="40" y2="31" stroke="url(#grad1)" stroke-width="2"/>
</svg>
